# xmcd CD database file
#
# Track frame offsets:
#	150
#	17870
#	30254
#	44366
#	57071
#	69607
#	83397
#	96882
#	110994
#	125580
#	141572
#	155684
#
# Disc length: 2243 seconds
#
# Revision: 1
# Processed by: cddbd v1.5.1PL0 Copyright (c) Steve Scherf et al.
# Submitted via: CDex 1.51
#
DISCID=a308c10c
DTITLE=P K and Dansefolket. - Kom nærmere
DYEAR=2002
DGENRE=Country
TTITLE0=P K Dansfolket - Talkin dity in Hawaiin
TTITLE1=Nå er det sommer
TTITLE2=Litt på grensen
TTITLE3=En vidunderlig dag
TTITLE4=40 tonn
TTITLE5=På drømmens vei
TTITLE6=Du må ha det riktig godt
TTITLE7=Min sjel holder enda av deg
TTITLE8=Du gjør så godt du kan
TTITLE9=Samme tid samme sted
TTITLE10=Sommermarknad
TTITLE11=Møt meg i parken
EXTD=Norwegian YEAR: 2002
EXTT0=
EXTT1=
EXTT2=
EXTT3=
EXTT4=
EXTT5=
EXTT6=
EXTT7=
EXTT8=
EXTT9=
EXTT10=
EXTT11=
PLAYORDER=
